<?xml version="1.0" standalone="no"?><svg xmlns="http://www.w3.org/2000/svg" viewBox="0 0 1440 320"><path fill="#e7008a" fill-opacity="1" d="M0,32L30,53.3C60,75,120,117,180,149.3C240,181,300,203,360,181.3C420,160,480,96,540,101.3C600,107,660,181,720,202.7C780,224,840,192,900,197.3C960,203,1020,245,1080,240C1140,235,1200,181,1260,144C1320,107,1380,85,1410,74.7L1440,64L1440,320L1410,320C1380,320,1320,320,1260,320C1200,320,1140,320,1080,320C1020,320,960,320,900,320C840,320,780,320,720,320C660,320,600,320,540,320C480,320,420,320,360,320C300,320,240,320,180,320C120,320,60,320,30,320L0,320Z"></path></svg>