<svg xmlns="http://www.w3.org/2000/svg" viewBox="0 0 871.67 214.87"><defs><style>.cls-1,.cls-2{fill:#fff;}.cls-1{fill-rule:evenodd;}</style></defs><g id="Layer_2" data-name="Layer 2"><g id="Layer_1-2" data-name="Layer 1"><path class="cls-1" d="M21.88,176.15c.27-15.15,0-30.5,0-45.68,0-14.67-2.58-30.36,14.62-31.47,13.52-.87,33.49,1.61,45.87-.21,6-.88,10.72-6.44,8.58-14.2-1.78-6.48-8-7.38-15.74-7.35C48,77.35,16.7,71,4.08,97.49c-5.58,11.69-3.81,27-3.81,42.32,0,6.64-.59,64.32.44,68.13,1.5,5.59,9.36,9,15.26,5.47,2.33-1.41,9.2-9.19,11.39-11.52,30.91-32.77,39.41-26.12,88.84-26.11,25.76,0,51.9,4.17,69.42-21.92,5.6-8.33,10.74-23.08,7.36-37-4.27-17.57-9.06-18.83-17.21-29C187.22,79,196.63,61.07,193,40.79A49.1,49.1,0,0,0,164.43,4.63C148.57-2,123.45.46,104,.46c-12,0-55.2-.82-63.76.88A48.91,48.91,0,0,0,4.29,30C-.1,40,.3,46.37.26,58.62.24,64.74,0,68,3.59,71.37A11.56,11.56,0,0,0,16.8,72.65C28.9,65.08,12.59,40.09,35,26.27c8.56-5.27,16.47-4.14,28-4.15h65.39c10.53,0,20.8-1.2,29,3.25,15.27,8.27,20.39,29.37,7.09,43.47-14.14,15-42.59,4.68-55.4,9.29-8.2,2.95-9.38,15.54-.51,19.78,10.93,5.23,40.4-5.91,55.45,9.16a27.45,27.45,0,0,1-5.27,43.06c-8,4.91-18,3.95-28.21,3.95-20.2,0-45-1.28-64.68.24C51,155.46,37.77,162.55,27,172.1,25.1,173.81,24.54,174.85,21.88,176.15Z"/><path class="cls-2" d="M320.19,85.8a14.56,14.56,0,0,1-1.94,19.63q-4.86,4.08-13.57,4.08H278.79V53.94h25q8.47,0,13.26,3.88a12.79,12.79,0,0,1,4.79,10.52,12.76,12.76,0,0,1-2.57,8.16A13.28,13.28,0,0,1,312.43,81,12.92,12.92,0,0,1,320.19,85.8Zm-27.86-9.38h8.86A7.84,7.84,0,0,0,306.3,75a5.24,5.24,0,0,0,1.78-4.31,5.36,5.36,0,0,0-1.78-4.35,7.68,7.68,0,0,0-5.11-1.51h-8.86ZM307.57,97a5.51,5.51,0,0,0,1.86-4.47A5.71,5.71,0,0,0,307.49,88a8,8,0,0,0-5.35-1.67h-9.81V98.58h10A8.06,8.06,0,0,0,307.57,97Z"/><path class="cls-2" d="M364.33,109.51l-11.56-21h-3.24v21H336V53.94h22.72a25,25,0,0,1,11.2,2.29,15.79,15.79,0,0,1,6.93,6.3,17.53,17.53,0,0,1,2.29,8.9,16.58,16.58,0,0,1-3.12,9.9,16.83,16.83,0,0,1-9.23,6.17l12.83,22ZM349.53,79h8.39c2.48,0,4.34-.6,5.58-1.82A6.86,6.86,0,0,0,365.36,72a6.66,6.66,0,0,0-1.86-5c-1.24-1.22-3.1-1.82-5.58-1.82h-8.39Z"/><path class="cls-2" d="M427.23,99.69H406.49l-3.33,9.82H389L409.1,53.94h15.67l20.11,55.57H430.55Zm-3.48-10.45L416.86,68.9l-6.81,20.34Z"/><path class="cls-2" d="M505.72,109.51H492.19L469.55,75.23v34.28H456V53.94h13.54l22.64,34.43V53.94h13.53Z"/><path class="cls-2" d="M556.75,57.42a24.84,24.84,0,0,1,10.17,9.78,28.69,28.69,0,0,1,3.6,14.52,28.79,28.79,0,0,1-3.6,14.49A24.71,24.71,0,0,1,556.71,106a32.3,32.3,0,0,1-15.32,3.49H520.57V53.94h20.82A32.35,32.35,0,0,1,556.75,57.42ZM552.48,93.6q4.26-4.2,4.27-11.88t-4.27-12q-4.28-4.27-12-4.28h-6.41v32.3h6.41Q548.2,97.79,552.48,93.6Z"/><path class="cls-2" d="M647.86,53.94V64.78H625.22V76.5h16.94V87H625.22v22.48H611.68V53.94Z"/><path class="cls-2" d="M671.93,106.42a27.29,27.29,0,0,1-10.37-10.17,28.45,28.45,0,0,1-3.84-14.69,28.22,28.22,0,0,1,3.84-14.64,27.26,27.26,0,0,1,10.37-10.13,30.18,30.18,0,0,1,28.74,0A26.7,26.7,0,0,1,711,66.92a28.75,28.75,0,0,1,3.76,14.64,28.72,28.72,0,0,1-3.8,14.69,27.08,27.08,0,0,1-10.29,10.17,30.11,30.11,0,0,1-28.7,0Zm25-13.14q4-4.44,4-11.72t-4-11.75a13.71,13.71,0,0,0-10.65-4.39,13.87,13.87,0,0,0-10.73,4.35q-4,4.35-4,11.79t4,11.76a13.79,13.79,0,0,0,10.73,4.39A13.64,13.64,0,0,0,697,93.28Z"/><path class="cls-2" d="M755.61,109.51l-11.56-21h-3.24v21H727.27V53.94H750a25,25,0,0,1,11.2,2.29,15.79,15.79,0,0,1,6.93,6.3,17.53,17.53,0,0,1,2.29,8.9,16.58,16.58,0,0,1-3.12,9.9,16.84,16.84,0,0,1-9.22,6.17l12.82,22ZM740.81,79h8.39c2.48,0,4.34-.6,5.58-1.82A6.86,6.86,0,0,0,756.64,72a6.66,6.66,0,0,0-1.86-5c-1.24-1.22-3.1-1.82-5.58-1.82h-8.39Z"/><path class="cls-2" d="M793.1,108.08a17.81,17.81,0,0,1-7.72-5.86,16,16,0,0,1-3-9.34h14.41a7,7,0,0,0,2.14,4.71,6.84,6.84,0,0,0,4.75,1.63,7.4,7.4,0,0,0,4.75-1.39A4.63,4.63,0,0,0,810.12,94a4.52,4.52,0,0,0-1.39-3.4,11,11,0,0,0-3.4-2.22,55.53,55.53,0,0,0-5.74-2,62.57,62.57,0,0,1-8.79-3.32A16.22,16.22,0,0,1,785,78.16a13.65,13.65,0,0,1-2.46-8.47q0-7.76,5.62-12.15t14.65-4.39q9.18,0,14.8,4.39t6,12.23H808.93a5.71,5.71,0,0,0-2-4.24A7,7,0,0,0,802.28,64a5.86,5.86,0,0,0-4,1.31,4.71,4.71,0,0,0-1.5,3.76,4.65,4.65,0,0,0,2.53,4.19,41,41,0,0,0,7.92,3.25A72.78,72.78,0,0,1,816,80a16.63,16.63,0,0,1,5.81,4.83A12.9,12.9,0,0,1,824.29,93a16,16,0,0,1-2.42,8.63,16.88,16.88,0,0,1-7,6.18A24,24,0,0,1,804,110.06,28.57,28.57,0,0,1,793.1,108.08Z"/><path class="cls-2" d="M851.17,64.78V76H869.3V86.47H851.17V98.66h20.5v10.85h-34V53.94h34V64.78Z"/><path class="cls-2" d="M403.26,140.68l-7,13.58v7.25H392v-7.25L385,140.68h4.71l4.48,9.52,4.45-9.52Z"/><path class="cls-2" d="M413.53,160.35a10.35,10.35,0,0,1-3.88-3.81,11.25,11.25,0,0,1,0-11,10.35,10.35,0,0,1,3.88-3.81,11.25,11.25,0,0,1,10.76,0,10.28,10.28,0,0,1,3.85,3.81,11.32,11.32,0,0,1,0,11,10.19,10.19,0,0,1-3.87,3.81,11.21,11.21,0,0,1-10.74,0Zm8.69-3.21a5.84,5.84,0,0,0,2.23-2.43,8,8,0,0,0,.81-3.68,7.83,7.83,0,0,0-.81-3.65,5.64,5.64,0,0,0-2.23-2.4,6.45,6.45,0,0,0-3.32-.84,6.54,6.54,0,0,0-3.33.84,5.68,5.68,0,0,0-2.25,2.4,7.82,7.82,0,0,0-.8,3.65,8,8,0,0,0,.8,3.68,5.88,5.88,0,0,0,2.25,2.43,6.45,6.45,0,0,0,3.33.85A6.36,6.36,0,0,0,422.22,157.14Z"/><path class="cls-2" d="M440.33,140.68v12.89a4.41,4.41,0,0,0,1.11,3.24,4.89,4.89,0,0,0,6.23,0,4.41,4.41,0,0,0,1.11-3.24V140.68H453v12.86a8.34,8.34,0,0,1-1.15,4.49,7.2,7.2,0,0,1-3.08,2.76,9.7,9.7,0,0,1-4.28.93,9.44,9.44,0,0,1-4.22-.93,6.89,6.89,0,0,1-3-2.76,8.52,8.52,0,0,1-1.11-4.49V140.68Z"/><path class="cls-2" d="M471.31,161.51l-4.59-8.12h-2v8.12h-4.18V140.68h7.82a9.12,9.12,0,0,1,4.12.85,6,6,0,0,1,2.55,2.3,6.45,6.45,0,0,1-.35,6.95,6.11,6.11,0,0,1-3.55,2.29l5,8.44Zm-6.56-11.25h3.49a3.45,3.45,0,0,0,2.53-.82,3.06,3.06,0,0,0,.84-2.29,2.91,2.91,0,0,0-.84-2.22,3.54,3.54,0,0,0-2.53-.79h-3.49Z"/><path class="cls-2" d="M508.62,152.59a5.11,5.11,0,0,1,1.13,3.28,5.17,5.17,0,0,1-3.19,4.92,8.64,8.64,0,0,1-3.67.72h-9V140.68h8.59a9.09,9.09,0,0,1,3.66.68,5.26,5.26,0,0,1,2.33,1.92,5,5,0,0,1,.79,2.77,4.82,4.82,0,0,1-1,3,5.27,5.27,0,0,1-2.58,1.73A4.67,4.67,0,0,1,508.62,152.59Zm-10.54-3.32h3.82a3.47,3.47,0,0,0,2.3-.67,2.36,2.36,0,0,0,.81-1.92,2.4,2.4,0,0,0-.81-1.94,3.42,3.42,0,0,0-2.3-.69h-3.82Zm6.59,8.12a2.53,2.53,0,0,0,.85-2,2.61,2.61,0,0,0-.9-2.1,3.6,3.6,0,0,0-2.42-.76h-4.12v5.61h4.21A3.58,3.58,0,0,0,504.67,157.39Z"/><path class="cls-2" d="M527.39,161.51l-4.59-8.12h-2v8.12h-4.18V140.68h7.82a9.12,9.12,0,0,1,4.12.85,6,6,0,0,1,2.55,2.3,6.45,6.45,0,0,1-.35,6.95,6.08,6.08,0,0,1-3.55,2.29l5,8.44Zm-6.56-11.25h3.49a3.5,3.5,0,0,0,2.54-.82,3.09,3.09,0,0,0,.83-2.29,2.94,2.94,0,0,0-.83-2.22,3.58,3.58,0,0,0-2.54-.79h-3.49Z"/><path class="cls-2" d="M552.11,157.54h-8.3l-1.38,4h-4.38l7.49-20.86h4.86l7.5,20.86h-4.42ZM551,154.2l-3-8.72-3,8.72Z"/><path class="cls-2" d="M582.07,161.51h-4.18l-9.46-14.3v14.3h-4.18V140.65h4.18L577.89,155V140.65h4.18Z"/><path class="cls-2" d="M602.8,142a9.25,9.25,0,0,1,3.85,3.66,10.94,10.94,0,0,1,1.36,5.5,10.79,10.79,0,0,1-1.36,5.48,9.31,9.31,0,0,1-3.85,3.63,12.52,12.52,0,0,1-5.78,1.28h-7.28V140.68H597A12.52,12.52,0,0,1,602.8,142ZM602,156.17a6.84,6.84,0,0,0,1.79-5A7,7,0,0,0,602,146a6.76,6.76,0,0,0-5.08-1.84h-3V158h3A6.9,6.9,0,0,0,602,156.17Z"/><path class="cls-2" d="M639.85,147a4.81,4.81,0,0,0-2-2,6,6,0,0,0-2.92-.69,6.39,6.39,0,0,0-3.29.84,5.7,5.7,0,0,0-2.23,2.38,8.42,8.42,0,0,0,0,7.23,5.82,5.82,0,0,0,2.28,2.38,6.74,6.74,0,0,0,3.41.84,5.89,5.89,0,0,0,3.91-1.27,6.06,6.06,0,0,0,2-3.54h-7.17v-3.19h11.28v3.64a9.56,9.56,0,0,1-1.79,4,10,10,0,0,1-3.53,3,10.38,10.38,0,0,1-4.85,1.12,10.94,10.94,0,0,1-5.45-1.36,9.82,9.82,0,0,1-3.82-3.77,11.58,11.58,0,0,1,0-11,9.8,9.8,0,0,1,3.82-3.79,11.6,11.6,0,0,1,11.53.36,8.73,8.73,0,0,1,3.59,4.82Z"/><path class="cls-2" d="M655.94,140.68v12.89a4.44,4.44,0,0,0,1.1,3.24,4.91,4.91,0,0,0,6.24,0,4.4,4.4,0,0,0,1.1-3.24V140.68h4.21v12.86a8.26,8.26,0,0,1-1.15,4.49,7.18,7.18,0,0,1-3.07,2.76,9.7,9.7,0,0,1-4.28.93,9.48,9.48,0,0,1-4.23-.93,7,7,0,0,1-3-2.76,8.61,8.61,0,0,1-1.1-4.49V140.68Z"/><path class="cls-2" d="M689,157.54h-8.3l-1.37,4h-4.39l7.49-20.86h4.87l7.49,20.86h-4.42Zm-1.14-3.34-3-8.72-3,8.72Z"/><path class="cls-2" d="M711.84,161.51l-4.6-8.12h-2v8.12h-4.18V140.68h7.82a9.06,9.06,0,0,1,4.12.85,5.86,5.86,0,0,1,2.55,2.3,6.23,6.23,0,0,1,.86,3.24,6,6,0,0,1-4.75,6l5,8.44Zm-6.57-11.25h3.49a3.48,3.48,0,0,0,2.54-.82,3.06,3.06,0,0,0,.84-2.29,2.91,2.91,0,0,0-.84-2.22,3.56,3.56,0,0,0-2.54-.79h-3.49Z"/><path class="cls-2" d="M736.83,142a9.22,9.22,0,0,1,3.86,3.66,10.94,10.94,0,0,1,1.35,5.5,10.78,10.78,0,0,1-1.35,5.48,9.27,9.27,0,0,1-3.86,3.63,12.48,12.48,0,0,1-5.77,1.28h-7.28V140.68h7.28A12.48,12.48,0,0,1,736.83,142ZM736,156.17a6.8,6.8,0,0,0,1.79-5A6.94,6.94,0,0,0,736,146a6.73,6.73,0,0,0-5.07-1.84H728V158h2.95A6.86,6.86,0,0,0,736,156.17Z"/></g></g></svg>