<svg xmlns="http://www.w3.org/2000/svg" viewBox="0 0 592.88 389.15"><defs><style>.cls-1,.cls-2{fill:#fff;}.cls-2{fill-rule:evenodd;}</style></defs><g id="Layer_2" data-name="Layer 2"><g id="Layer_1-2" data-name="Layer 1"><path class="cls-1" d="M41.4,313.23a14.56,14.56,0,0,1-1.94,19.63q-4.87,4.08-13.58,4.08H0V281.37H25q8.47,0,13.26,3.87a14.08,14.08,0,0,1,2.22,18.69,13.39,13.39,0,0,1-6.85,4.51A12.88,12.88,0,0,1,41.4,313.23Zm-27.86-9.38H22.4a7.84,7.84,0,0,0,5.11-1.47,5.24,5.24,0,0,0,1.78-4.31,5.39,5.39,0,0,0-1.78-4.36,7.73,7.73,0,0,0-5.11-1.5H13.54Zm15.23,20.62A5.49,5.49,0,0,0,30.63,320a5.73,5.73,0,0,0-1.93-4.59,8,8,0,0,0-5.35-1.66H13.54V326h10A8,8,0,0,0,28.77,324.47Z"/><path class="cls-1" d="M85.54,336.94,74,316H70.74v21H57.2V281.37H79.92a25,25,0,0,1,11.2,2.29A15.88,15.88,0,0,1,98.05,290a17.6,17.6,0,0,1,2.29,8.91,16.5,16.5,0,0,1-3.13,9.89A16.73,16.73,0,0,1,88,314.93l12.83,22Zm-14.8-30.56h8.39q3.72,0,5.58-1.82a6.87,6.87,0,0,0,1.86-5.15,6.64,6.64,0,0,0-1.86-5c-1.24-1.22-3.1-1.82-5.58-1.82H70.74Z"/><path class="cls-1" d="M148.44,327.12H127.7l-3.33,9.82H110.2l20.11-55.57H146l20.11,55.57H151.76ZM145,316.67l-6.89-20.34-6.81,20.34Z"/><path class="cls-1" d="M226.93,336.94H213.4l-22.64-34.28v34.28H177.22V281.37h13.54L213.4,315.8V281.37h13.53Z"/><path class="cls-1" d="M278,284.85a24.88,24.88,0,0,1,10.17,9.77,31,31,0,0,1,0,29,24.71,24.71,0,0,1-10.21,9.81,32.3,32.3,0,0,1-15.32,3.49H241.78V281.37H262.6A32.35,32.35,0,0,1,278,284.85ZM273.68,321q4.27-4.18,4.28-11.87t-4.28-11.95q-4.28-4.27-11.95-4.28h-6.41v32.3h6.41Q269.41,325.22,273.68,321Z"/><path class="cls-1" d="M369.07,281.37v10.84H346.43v11.72h16.94v10.52H346.43v22.49H332.89V281.37Z"/><path class="cls-1" d="M393.14,333.85a27.29,27.29,0,0,1-10.37-10.17,29.92,29.92,0,0,1,0-29.33,27.36,27.36,0,0,1,10.37-10.14,30.18,30.18,0,0,1,28.74,0,26.8,26.8,0,0,1,10.29,10.14,30.34,30.34,0,0,1,0,29.33,27.15,27.15,0,0,1-10.29,10.17,30.11,30.11,0,0,1-28.7,0Zm25-13.14q4-4.44,4-11.72t-4-11.75a13.72,13.72,0,0,0-10.65-4.4,13.88,13.88,0,0,0-10.73,4.36q-4,4.35-4,11.79t4,11.76a15.16,15.16,0,0,0,21.38,0Z"/><path class="cls-1" d="M476.82,336.94l-11.56-21H462v21H448.48V281.37H471.2a25,25,0,0,1,11.2,2.29,15.83,15.83,0,0,1,6.93,6.29,17.6,17.6,0,0,1,2.29,8.91,16.55,16.55,0,0,1-3.12,9.89,16.8,16.8,0,0,1-9.23,6.18l12.83,22ZM462,306.38h8.39q3.72,0,5.58-1.82a6.87,6.87,0,0,0,1.86-5.15,6.64,6.64,0,0,0-1.86-5c-1.24-1.22-3.1-1.82-5.58-1.82H462Z"/><path class="cls-1" d="M514.31,335.51a17.81,17.81,0,0,1-7.72-5.86,16,16,0,0,1-3-9.34H518a7,7,0,0,0,2.14,4.71,6.86,6.86,0,0,0,4.75,1.62,7.46,7.46,0,0,0,4.75-1.38,4.63,4.63,0,0,0,1.74-3.84,4.51,4.51,0,0,0-1.39-3.4,11.13,11.13,0,0,0-3.4-2.22,55.53,55.53,0,0,0-5.74-2A63.85,63.85,0,0,1,512,310.5a16.22,16.22,0,0,1-5.85-4.91,13.67,13.67,0,0,1-2.46-8.47q0-7.75,5.62-12.15t14.65-4.4q9.18,0,14.8,4.4t6,12.23H530.14a5.69,5.69,0,0,0-2-4.24,7,7,0,0,0-4.67-1.54,5.85,5.85,0,0,0-4,1.3,4.74,4.74,0,0,0-1.5,3.76,4.65,4.65,0,0,0,2.53,4.2,41.65,41.65,0,0,0,7.92,3.25,72.78,72.78,0,0,1,8.75,3.48,16.63,16.63,0,0,1,5.81,4.83,12.9,12.9,0,0,1,2.46,8.15,16,16,0,0,1-2.42,8.63,16.86,16.86,0,0,1-7,6.17,24,24,0,0,1-10.85,2.3A28.57,28.57,0,0,1,514.31,335.51Z"/><path class="cls-1" d="M572.38,292.21v11.24h18.13V313.9H572.38v12.19h20.5v10.85h-34V281.37h34v10.84Z"/><path class="cls-2" d="M213.09,176.15c.27-15.15,0-30.5,0-45.68,0-14.67-2.58-30.36,14.62-31.47,13.52-.87,33.49,1.61,45.87-.21,6-.88,10.72-6.44,8.58-14.2-1.78-6.48-8-7.38-15.74-7.35-27.29.11-58.55-6.21-71.17,20.25-5.58,11.69-3.82,27-3.82,42.32,0,6.64-.58,64.32.45,68.13,1.5,5.59,9.36,9,15.26,5.47,2.33-1.41,9.19-9.19,11.39-11.52,30.91-32.77,39.41-26.12,88.84-26.11,25.75,0,51.9,4.17,69.42-21.92,5.6-8.33,10.74-23.08,7.36-37-4.27-17.57-9.06-18.83-17.21-29,11.45-8.88,20.86-26.84,17.25-47.12A49.12,49.12,0,0,0,355.64,4.63C339.78-2,314.66.46,295.19.46c-12,0-55.19-.82-63.75.88A48.91,48.91,0,0,0,195.5,30c-4.39,9.94-4,16.33-4,28.58,0,6.12-.3,9.34,3.33,12.75A11.56,11.56,0,0,0,208,72.65c12.1-7.57-4.21-32.56,18.19-46.38,8.56-5.27,16.47-4.14,28-4.15h65.39c10.53,0,20.8-1.2,29,3.25,15.27,8.27,20.39,29.37,7.09,43.47-14.14,15-42.59,4.68-55.4,9.29-8.2,2.95-9.38,15.54-.52,19.78,10.94,5.23,40.41-5.91,55.46,9.16A27.45,27.45,0,0,1,350,150.12c-8,4.91-18,3.95-28.21,3.95-20.2,0-45-1.28-64.68.24-14.88,1.15-28.12,8.24-38.86,17.79C216.31,173.81,215.75,174.85,213.09,176.15Z"/><path class="cls-1" d="M124.47,368.11l-7,13.58v7.25h-4.18v-7.25l-7.07-13.58h4.71l4.48,9.52,4.45-9.52Z"/><path class="cls-1" d="M134.74,387.78a10.35,10.35,0,0,1-3.88-3.81,11.25,11.25,0,0,1,0-11,10.35,10.35,0,0,1,3.88-3.81,11.25,11.25,0,0,1,10.76,0,10.28,10.28,0,0,1,3.85,3.81,11.32,11.32,0,0,1,0,11,10.19,10.19,0,0,1-3.87,3.81,11.21,11.21,0,0,1-10.74,0Zm8.69-3.21a5.8,5.8,0,0,0,2.23-2.44,7.91,7.91,0,0,0,.81-3.67,7.83,7.83,0,0,0-.81-3.65,5.72,5.72,0,0,0-2.23-2.41,6.54,6.54,0,0,0-3.32-.83,6.64,6.64,0,0,0-3.33.83,5.77,5.77,0,0,0-2.25,2.41,7.82,7.82,0,0,0-.8,3.65,7.91,7.91,0,0,0,.8,3.67,5.85,5.85,0,0,0,2.25,2.44,6.54,6.54,0,0,0,3.33.85A6.46,6.46,0,0,0,143.43,384.57Z"/><path class="cls-1" d="M161.54,368.11V381a4.42,4.42,0,0,0,1.11,3.24,4.89,4.89,0,0,0,6.23,0A4.42,4.42,0,0,0,170,381V368.11h4.21V381a8.34,8.34,0,0,1-1.15,4.49,7.2,7.2,0,0,1-3.08,2.76,9.7,9.7,0,0,1-4.28.93,9.44,9.44,0,0,1-4.22-.93,6.89,6.89,0,0,1-3-2.76,8.52,8.52,0,0,1-1.11-4.49V368.11Z"/><path class="cls-1" d="M192.52,388.94l-4.59-8.12h-2v8.12h-4.18V368.11h7.82a9.12,9.12,0,0,1,4.12.85,6,6,0,0,1,2.55,2.29,6.37,6.37,0,0,1,.85,3.24,6.17,6.17,0,0,1-1.2,3.72,6.1,6.1,0,0,1-3.55,2.28l5,8.45ZM186,377.69h3.49a3.5,3.5,0,0,0,2.53-.82,3.06,3.06,0,0,0,.84-2.29,2.91,2.91,0,0,0-.84-2.22,3.54,3.54,0,0,0-2.53-.79H186Z"/><path class="cls-1" d="M229.83,380A5.14,5.14,0,0,1,231,383.3a5.29,5.29,0,0,1-.82,2.94,5.55,5.55,0,0,1-2.37,2,8.64,8.64,0,0,1-3.67.72h-9V368.11h8.59a9.09,9.09,0,0,1,3.66.68,5.31,5.31,0,0,1,2.33,1.91,5.07,5.07,0,0,1,.79,2.78,4.77,4.77,0,0,1-1,3,5.12,5.12,0,0,1-2.59,1.73A4.68,4.68,0,0,1,229.83,380Zm-10.54-3.32h3.82a3.47,3.47,0,0,0,2.3-.67,2.36,2.36,0,0,0,.81-1.92,2.39,2.39,0,0,0-.81-1.94,3.42,3.42,0,0,0-2.3-.69h-3.82Zm6.59,8.12a2.53,2.53,0,0,0,.85-2,2.6,2.6,0,0,0-.9-2.1,3.6,3.6,0,0,0-2.42-.76h-4.12v5.61h4.21A3.58,3.58,0,0,0,225.88,384.82Z"/><path class="cls-1" d="M248.6,388.94,244,380.82h-2v8.12h-4.18V368.11h7.82a9.12,9.12,0,0,1,4.12.85,6,6,0,0,1,2.55,2.29,6.27,6.27,0,0,1,.85,3.24,6.17,6.17,0,0,1-1.2,3.72,6.1,6.1,0,0,1-3.55,2.28l5,8.45ZM242,377.69h3.49a3.5,3.5,0,0,0,2.53-.82,3.06,3.06,0,0,0,.84-2.29,2.91,2.91,0,0,0-.84-2.22,3.54,3.54,0,0,0-2.53-.79H242Z"/><path class="cls-1" d="M273.31,385H265l-1.38,4h-4.38l7.49-20.86h4.86l7.49,20.86h-4.41Zm-1.13-3.34-3-8.72-3,8.72Z"/><path class="cls-1" d="M303.28,388.94H299.1l-9.46-14.3v14.3h-4.18V368.08h4.18l9.46,14.32V368.08h4.18Z"/><path class="cls-1" d="M324,369.39a9.19,9.19,0,0,1,3.85,3.66,10.91,10.91,0,0,1,1.35,5.5,10.78,10.78,0,0,1-1.35,5.48,9.31,9.31,0,0,1-3.85,3.63,12.55,12.55,0,0,1-5.78,1.28H311V368.11h7.28A12.43,12.43,0,0,1,324,369.39Zm-.85,14.21a6.86,6.86,0,0,0,1.79-5.05,7,7,0,0,0-1.79-5.09,6.8,6.8,0,0,0-5.08-1.83h-2.95v13.76h2.95A6.9,6.9,0,0,0,323.16,383.6Z"/><path class="cls-1" d="M361.06,374.37a4.93,4.93,0,0,0-2-2,6.08,6.08,0,0,0-2.92-.68,6.48,6.48,0,0,0-3.29.83,5.88,5.88,0,0,0-2.24,2.39,7.77,7.77,0,0,0-.8,3.58,7.61,7.61,0,0,0,.82,3.64,5.84,5.84,0,0,0,2.28,2.39,6.72,6.72,0,0,0,3.4.84,5.86,5.86,0,0,0,3.91-1.27,6,6,0,0,0,2-3.54h-7.16v-3.19h11.28V381a9.74,9.74,0,0,1-1.79,4,10.14,10.14,0,0,1-3.53,3,10.5,10.5,0,0,1-4.85,1.12,10.94,10.94,0,0,1-5.45-1.36,9.78,9.78,0,0,1-3.82-3.78,11.56,11.56,0,0,1,0-11,9.8,9.8,0,0,1,3.82-3.79,11.63,11.63,0,0,1,11.53.35,8.77,8.77,0,0,1,3.59,4.82Z"/><path class="cls-1" d="M377.15,368.11V381a4.42,4.42,0,0,0,1.1,3.24,4.91,4.91,0,0,0,6.24,0,4.46,4.46,0,0,0,1.1-3.24V368.11h4.21V381a8.26,8.26,0,0,1-1.15,4.49,7.18,7.18,0,0,1-3.07,2.76,9.73,9.73,0,0,1-4.28.93,9.48,9.48,0,0,1-4.23-.93,7,7,0,0,1-3-2.76A8.61,8.61,0,0,1,373,381V368.11Z"/><path class="cls-1" d="M410.16,385h-8.3l-1.37,4H396.1l7.49-20.86h4.87L416,388.94h-4.42ZM409,381.63l-3-8.72-3,8.72Z"/><path class="cls-1" d="M433.05,388.94l-4.6-8.12h-2v8.12H422.3V368.11h7.82a9.06,9.06,0,0,1,4.12.85,5.84,5.84,0,0,1,2.55,2.29,6.27,6.27,0,0,1,.85,3.24,6,6,0,0,1-4.74,6l5,8.45Zm-6.57-11.25H430a3.52,3.52,0,0,0,2.54-.82,3.06,3.06,0,0,0,.84-2.29,2.91,2.91,0,0,0-.84-2.22,3.56,3.56,0,0,0-2.54-.79h-3.49Z"/><path class="cls-1" d="M458,369.39a9.08,9.08,0,0,1,3.85,3.66,10.81,10.81,0,0,1,1.36,5.5,10.69,10.69,0,0,1-1.36,5.48,9.19,9.19,0,0,1-3.85,3.63,12.48,12.48,0,0,1-5.77,1.28H445V368.11h7.28A12.36,12.36,0,0,1,458,369.39Zm-.85,14.21a6.82,6.82,0,0,0,1.79-5.05,7,7,0,0,0-1.79-5.09,6.76,6.76,0,0,0-5.07-1.83h-2.95v13.76h2.95A6.86,6.86,0,0,0,457.19,383.6Z"/></g></g></svg>